Motion_pl05
version=1
nRows=9
nColumns=43
inDegrees=yes
endheader
time	pelvis_tilt	pelvis_list	pelvis_rotation	pelvis_tx	pelvis_ty	pelvis_tz	hip_flexion_r	hip_adduction_r	hip_rotation_r	knee_angle_r	ankle_angle_r	subtalar_angle_r	mtp_angle_r	hip_flexion_l	hip_adduction_l	hip_rotation_l	knee_angle_l	ankle_angle_l	subtalar_angle_l	mtp_angle_l	lumbar_extension	lumbar_bending	lumbar_rotation	neck_flexion	neck_lateral_bending	neck_rotation	arm_flex_r	arm_add_r	arm_rot_r	elbow_flex_r	pro_sup_r	wrist_flex_r	wrist_dev_r	hand_finger_flex_r	arm_flex_l	arm_add_l	arm_rot_l	elbow_flex_l	pro_sup_l	wrist_flex_l	wrist_dev_l	hand_finger_flex_l
      0.00250000	      4.50565998	    -17.03172234	     97.53079712	      0.04445229	      1.77607296	      1.93898371	     86.62734140	    -14.07589155	      0.01270499	   -126.48881048	     39.89784260	      4.00769963	    -29.52212414	     90.76363606	    -11.33594543	      8.01971469	   -123.68773083	     43.66167685	      2.90341407	    -34.69030287	    -44.45666310	      3.07309260	      1.55959082	     33.90184481	      1.86118926	      0.41227071	    -17.84370568	     -9.57781547	    -31.83206144	     84.61722707	     78.77128665	    -24.42492060	    -24.99999983	     59.15399782	    -13.22081836	    -21.09479020	    -24.32512990	     90.36978455	     89.35772540	    -50.46056076	     -8.55503760	     74.50248093
      0.00500000	      4.47629398	    -16.95158174	     97.49914030	      0.04439750	      1.77441318	      1.93870774	     86.72114061	    -14.10036782	      0.08881126	   -126.78802091	     39.92632030	      3.97955551	    -29.56331460	     90.84893475	    -11.34284364	      8.08213121	   -123.98688330	     43.66382383	      2.90016035	    -34.72048635	    -44.65509291	      3.04893781	      1.55095464	     33.99128774	      1.87477271	      0.36700465	    -17.94241988	     -9.46136208	    -31.82439194	     84.51195611	     78.73679471	    -24.40246207	    -24.99999983	     59.14638504	    -13.35826185	    -21.04116438	    -24.37632176	     90.31389729	     89.36905444	    -50.46125742	     -8.52405591	     74.48477794
      0.00750000	      4.41388336	    -16.89720536	     97.43597432	      0.04433807	      1.77253453	      1.93856462	     86.89755334	    -14.11223009	      0.24063871	   -127.12156391	     39.97027311	      4.01228382	    -29.71048041	     90.98418148	    -11.36597700	      8.12015398	   -124.32076805	     43.70253711	      2.96753103	    -34.81124477	    -44.87131555	      2.98382396	      1.48429011	     34.19157954	      1.88634435	      0.28790829	    -18.09454773	     -9.29329828	    -31.86542241	     84.59172750	     78.59903390	    -24.20811859	    -24.99999983	     59.17374031	    -13.65671111	    -20.94180459	    -24.56047400	     90.50627399	     89.36912128	    -50.38269344	     -8.48671414	     74.45989477
      0.01000000	      4.38952443	    -16.82886128	     97.40820261	      0.04424817	      1.77094310	      1.93827263	     86.99391840	    -14.14693317	      0.31952559	   -127.39979775	     39.99648100	      4.01991809	    -29.75160864	     91.06604346	    -11.36927588	      8.17975991	   -124.60371374	     43.74687329	      2.96743682	    -34.83130178	    -45.05040171	      2.97293556	      1.47905483	     34.29323417	      1.88492113	      0.29139695	    -18.17732030	     -9.19907336	    -31.84933303	     84.45371264	     78.55424723	    -24.13967246	    -24.99999983	     59.18792329	    -13.76124353	    -20.87737381	    -24.60483984	     90.39941019	     89.34128105	    -50.34442285	     -8.45506186	     74.45321977
      0.01250000	      4.15656247	    -16.87655545	     97.29173993	      0.04418497	      1.76897667	      1.93814382	     87.34084727	    -14.20558278	      0.72340485	   -127.75783901	     40.20502543	      4.41547905	    -30.63868125	     91.19556919	    -11.38678212	      8.02742777	   -124.89352446	     43.96655672	      3.21711623	    -35.25336772	    -45.14317430	      2.74377133	      1.18093502	     34.43467082	      2.07074417	      0.44586201	    -18.18631743	     -9.06726959	    -31.88956211	     84.25553085	     77.94018296	    -22.67028706	    -24.99999983	     59.47922834	    -14.15218967	    -20.73468401	    -25.09043033	     90.61435796	     88.90257770	    -49.35309588	     -8.43706141	     74.32994015
      0.01500000	      4.15325812	    -16.79420569	     97.27099752	      0.04406998	      1.76738257	      1.93785652	     87.41873918	    -14.22854291	      0.79390216	   -128.03945000	     40.22586639	      4.39421090	    -30.67199669	     91.28264027	    -11.38671180	      8.09919387	   -125.19419662	     44.00178057	      3.18277561	    -35.26367669	    -45.33795353	      2.74944275	      1.18417144	     34.53357144	      2.04700131	      0.44210083	    -18.28623510	     -8.96327399	    -31.90430506	     84.19976940	     77.93615483	    -22.65646981	    -24.99999983	     59.47586738	    -14.26951631	    -20.66149156	    -25.11912916	     90.54424841	     88.88684701	    -49.34563120	     -8.44094422	     74.31467699
      0.01750000	      4.14448557	    -16.70880933	     97.24172664	      0.04396671	      1.76570195	      1.93758782	     87.51179385	    -14.24768247	      0.87223516	   -128.33914750	     40.25081767	      4.38920965	    -30.71025161	     91.37735254	    -11.38899193	      8.17992391	   -125.50896892	     44.04560598	      3.16380431	    -35.27263115	    -45.53815920	      2.74816746	      1.19098560	     34.64555824	      2.01254616	      0.44363456	    -18.41733869	     -8.85465472	    -31.93465889	     84.20707101	     77.92083402	    -22.60459195	    -24.99999983	     59.49199564	    -14.41573334	    -20.57687131	    -25.17663640	     90.55369768	     88.85111365	    -49.32072626	     -8.46751499	     74.31004727
      0.02000000	      4.10734213	    -16.71058518	     97.12479244	      0.04403064	      1.76397747	      1.93749965	     87.72944816	    -14.18117907	      1.00951470	   -128.60375229	     40.31920969	      4.59185070	    -31.07000594	     91.55261228	    -11.49336373	      8.24771168	   -125.78959245	     44.16427633	      3.32461226	    -35.35612790	    -45.74236984	      2.71150158	      1.15304297	     35.10098537	      1.86221427	      0.50282732	    -18.50314645	     -8.71281358	    -32.00376250	     84.32377680	     77.78379525	    -21.93185675	    -24.99999983	     59.70596409	    -14.68035893	    -20.40222171	    -25.47760507	     90.69945021	     88.39213065	    -48.89502471	     -8.74930254	     74.31611329
      0.02250000	      4.09154412	    -16.60656468	     97.10096664	      0.04389945	      1.76231745	      1.93720711	     87.79958515	    -14.20581941	      1.09260663	   -128.90101928	     40.35750154	      4.56274211	    -31.10314043	     91.62844585	    -11.48113684	      8.32507190	   -126.11010575	     44.19864213	      3.30311060	    -35.35897655	    -45.93362250	      2.70777477	      1.17543315	     35.09133259	      1.89054852	      0.50924457	    -18.62131213	     -8.62780840	    -32.02496422	     84.29557361	     77.77022406	    -21.87612352	    -24.99999983	     59.72844242	    -14.79553942	    -20.33862712	    -25.49258297	     90.70495981	     88.34123704	    -48.85559527	     -8.78831014	     74.32035926
